<svg id="Layer_1" data-name="Layer 1" xmlns="http://www.w3.org/2000/svg" xmlns:xlink="http://www.w3.org/1999/xlink" width="30" height="30" viewBox="0 0 30 30"><defs><style>.cls-1{fill:none;}.cls-2{fill:#fafafa;}.cls-3{clip-path:url(#clip-path);}.cls-4{clip-path:url(#clip-path-2);}.cls-5{fill:#fff;}</style><clipPath id="clip-path"><rect class="cls-1" x="3" y="0.29" width="26" height="29.06" transform="translate(30.82 -1.18) rotate(90)"/></clipPath><clipPath id="clip-path-2"><rect class="cls-1" x="-3.05" y="-3.33" width="36.71" height="36.71"/></clipPath></defs><rect class="cls-2" width="30" height="30"/><g class="cls-3"><g class="cls-4"><polygon class="cls-5" points="29.06 15.01 19.95 6.66 19.95 11.98 18.36 11.98 18.36 2.79 18.33 2.79 12.3 2.79 12.27 2.79 12.27 11.98 10.65 11.98 10.65 6.68 1.53 15.04 10.65 23.4 10.65 18.08 12.27 18.08 12.27 27.26 18.36 27.26 18.36 18.08 19.95 18.08 19.95 23.38 29.06 15.01"/><polygon points="16.8 25.67 16.8 16.53 21.45 16.53 21.45 19.98 26.52 15.01 21.45 10.08 21.45 13.53 16.8 13.53 16.8 4.38 16.8 4.35 13.8 4.35 13.8 4.38 13.8 13.56 9.15 13.56 9.15 10.07 4.07 15.04 9.15 19.97 9.15 16.53 13.8 16.53 13.8 25.67 13.8 25.7 16.8 25.7 16.8 25.67"/></g></g></svg>