<svg id="Layer_1" data-name="Layer 1" xmlns="http://www.w3.org/2000/svg" xmlns:xlink="http://www.w3.org/1999/xlink" width="30" height="30" viewBox="0 0 30 30"><defs><style>.cls-1,.cls-6,.cls-7{fill:none;}.cls-2{fill:#fafafa;}.cls-3{clip-path:url(#clip-path);}.cls-4{clip-path:url(#clip-path-2);}.cls-5{fill:#fff;}.cls-6,.cls-7{stroke:#000;stroke-linecap:round;stroke-width:0.75px;}.cls-6{stroke-linejoin:round;}</style><clipPath id="clip-path"><rect class="cls-1" x="1" y="0.29" width="28" height="29.75"/></clipPath><clipPath id="clip-path-2"><rect class="cls-1" x="-12.25" y="-13.52" width="56" height="56"/></clipPath></defs><rect class="cls-2" width="30" height="30"/><g class="cls-3"><g class="cls-4"><g class="cls-4"><path class="cls-5" d="M7.58,22.15c-.5-.63-1.1-1.91-2.18-3.47-.61-.88-2.12-2.54-2.57-3.39a2.21,2.21,0,0,1-.26-1.7,2.31,2.31,0,0,1,2.49-1.84A4.66,4.66,0,0,1,7.44,13a11.18,11.18,0,0,1,1.24,1.38c.29.34.36.48.66.89s.53.8.37.21c-.12-.87-.33-2.35-.62-3.66-.22-1-.28-1.15-.49-1.91s-.34-1.38-.55-2.24a24.78,24.78,0,0,1-.48-2.55c-.1-1-.15-2.52.46-3.24A2.07,2.07,0,0,1,10.3,1.5a4.61,4.61,0,0,1,1.64,2.27,13.53,13.53,0,0,1,.9,3.43c.29,1.8.82,4.31.83,4.84,0-.65-.12-2,0-2.62A1.88,1.88,0,0,1,14.83,8a3.41,3.41,0,0,1,1.6-.1,2.21,2.21,0,0,1,1.34.87,9.48,9.48,0,0,1,.67,3.2,11.78,11.78,0,0,1,.5-2.77,2.18,2.18,0,0,1,1.2-.84,4.87,4.87,0,0,1,1.69,0A2.46,2.46,0,0,1,23,9.23a9.65,9.65,0,0,1,.66,2.9c0,.25.13-.69.51-1.29A1.81,1.81,0,0,1,27.52,12c0,1.14,0,1.09,0,1.86s0,1.45-.07,2.1a20.55,20.55,0,0,1-.42,3,10.34,10.34,0,0,1-1.14,2.42S24,23.59,23.83,24.57a7,7,0,0,0-.18,1.69,6.12,6.12,0,0,0,.21,1.61,10.23,10.23,0,0,1-2.16.06C21,27.83,20.18,26.46,20,26a.66.66,0,0,0-1.19,0c-.39.67-1.24,1.87-1.84,1.95-1.17.15-3.59.05-5.49,0,0,0,.32-1.77-.4-2.38-.53-.45-1.45-1.37-2-1.85Z"/><path class="cls-6" d="M7.58,22.15c-.5-.63-1.1-1.91-2.18-3.47-.61-.88-2.12-2.54-2.57-3.39a2.21,2.21,0,0,1-.26-1.7,2.31,2.31,0,0,1,2.49-1.84A4.66,4.66,0,0,1,7.44,13a11.18,11.18,0,0,1,1.24,1.38c.29.34.36.48.66.89s.53.8.37.21c-.12-.87-.33-2.35-.62-3.66-.22-1-.28-1.15-.49-1.91s-.34-1.38-.55-2.24a24.78,24.78,0,0,1-.48-2.55c-.1-1-.15-2.52.46-3.24A2.07,2.07,0,0,1,10.3,1.5a4.61,4.61,0,0,1,1.64,2.27,13.53,13.53,0,0,1,.9,3.43c.29,1.8.82,4.31.83,4.84,0-.65-.12-2,0-2.62A1.88,1.88,0,0,1,14.83,8a3.41,3.41,0,0,1,1.6-.1,2.21,2.21,0,0,1,1.34.87,9.48,9.48,0,0,1,.67,3.2,11.78,11.78,0,0,1,.5-2.77,2.18,2.18,0,0,1,1.2-.84,4.87,4.87,0,0,1,1.69,0A2.46,2.46,0,0,1,23,9.23a9.65,9.65,0,0,1,.66,2.9c0,.25.13-.69.51-1.29A1.81,1.81,0,0,1,27.52,12c0,1.14,0,1.09,0,1.86s0,1.45-.07,2.1a20.55,20.55,0,0,1-.42,3,10.34,10.34,0,0,1-1.14,2.42S24,23.59,23.83,24.57a7,7,0,0,0-.18,1.69,6.12,6.12,0,0,0,.21,1.61,10.23,10.23,0,0,1-2.16.06C21,27.83,20.18,26.46,20,26a.66.66,0,0,0-1.19,0c-.39.67-1.24,1.87-1.84,1.95-1.17.15-3.59.05-5.49,0,0,0,.32-1.77-.4-2.38-.53-.45-1.45-1.37-2-1.85Z"/><line class="cls-7" x1="21.99" y1="22.77" x2="21.99" y2="16.71"/><line class="cls-7" x1="18.46" y1="22.79" x2="18.43" y2="16.71"/><line class="cls-7" x1="14.97" y1="16.77" x2="15" y2="22.76"/></g></g></g></svg>