<svg id="Layer_1" data-name="Layer 1" xmlns="http://www.w3.org/2000/svg" xmlns:xlink="http://www.w3.org/1999/xlink" width="30" height="30" viewBox="0 0 30 30"><defs><style>.cls-1,.cls-6{fill:none;}.cls-2{fill:#fafafa;}.cls-3{clip-path:url(#clip-path);}.cls-4{clip-path:url(#clip-path-2);}.cls-5{clip-path:url(#clip-path-3);}.cls-6{stroke:#000;}</style><clipPath id="clip-path"><rect class="cls-1" x="1" y="8.53" width="28" height="13.52" transform="translate(30.29 0.29) rotate(90)"/></clipPath><clipPath id="clip-path-2"><rect class="cls-1" x="-10.98" y="-11.11" width="52.9" height="52.9"/></clipPath><clipPath id="clip-path-3"><rect class="cls-1" x="-1.06" y="-1.19" width="33.06" height="33.07"/></clipPath></defs><g class="cls-3"><g class="cls-4"><rect x="13.83" y="5.38" width="1.63" height="19.83"/><rect x="12.17" y="15.3" width="4.94" height="1.63"/><g class="cls-5"><path class="cls-6" d="M14.66,6.6a6.44,6.44,0,0,1,1.83-2.52,6.81,6.81,0,0,1,1.74-.92A8.56,8.56,0,0,1,20.39,3"/><path class="cls-6" d="M14.6,6.61A7,7,0,0,0,12.84,4a5.61,5.61,0,0,0-1.74-.89A8.57,8.57,0,0,0,8.94,3"/><path class="cls-6" d="M14.66,24a6.41,6.41,0,0,0,1.83,2.52,6.65,6.65,0,0,0,1.74.92,8.51,8.51,0,0,0,2.16.16"/><path class="cls-6" d="M14.6,24a7,7,0,0,1-1.76,2.56,5.54,5.54,0,0,1-1.74.89,8.52,8.52,0,0,1-2.16.16"/></g></g></g></svg>
